<svg width="800" height="400" viewBox="0 0 800 400" xmlns="http://www.w3.org/2000/svg">
  <defs>
    <radialGradient id="bg" cx="50%" cy="50%" r="70%">
      <stop offset="0%" stop-color="#12122a"/>
      <stop offset="100%" stop-color="#08080f"/>
    </radialGradient>
  </defs>
  <rect width="800" height="400" fill="url(#bg)"/>
  <g opacity="0.6">
    <circle cx="120" cy="80" r="2.5" fill="#5B9BFF"/><circle cx="200" cy="150" r="2" fill="#7C5CBF"/>
    <circle cx="340" cy="60" r="3" fill="#A855F7"/><circle cx="450" cy="120" r="2" fill="#3B82F6"/>
    <circle cx="560" cy="90" r="2.5" fill="#6366F1"/><circle cx="680" cy="180" r="2" fill="#5B9BFF"/>
    <circle cx="150" cy="280" r="2" fill="#7C5CBF"/><circle cx="300" cy="320" r="3" fill="#A855F7"/>
    <circle cx="420" cy="300" r="2" fill="#3B82F6"/><circle cx="550" cy="340" r="2.5" fill="#6366F1"/>
    <circle cx="700" cy="290" r="2" fill="#5B9BFF"/><circle cx="80" cy="180" r="2" fill="#7C5CBF"/>
    <circle cx="250" cy="220" r="3" fill="#A855F7"/><circle cx="480" cy="250" r="2" fill="#3B82F6"/>
    <circle cx="620" cy="230" r="2.5" fill="#6366F1"/><circle cx="380" cy="180" r="2" fill="#5B9BFF"/>
    <circle cx="160" cy="120" r="1.5" fill="#7C5CBF"/><circle cx="520" cy="160" r="1.8" fill="#A855F7"/>
    <circle cx="640" cy="110" r="2.2" fill="#3B82F6"/><circle cx="280" cy="100" r="1.5" fill="#6366F1"/>
  </g>
  <rect x="200" y="145" width="400" height="110" rx="16" fill="rgba(255,255,255,0.04)" stroke="rgba(255,255,255,0.08)" stroke-width="1"/>
  <text x="400" y="190" text-anchor="middle" fill="#5B9BFF" font-family="system-ui" font-size="28" font-weight="700">Particle Field</text>
  <text x="400" y="225" text-anchor="middle" fill="rgba(255,255,255,0.35)" font-family="system-ui" font-size="14">6 000 particles · Three.js · Custom Shaders</text>
</svg>
